<svg width="31" height="48" viewBox="0 0 31 48" fill="none" xmlns="http://www.w3.org/2000/svg">
<path d="M28.6369 11.2333C29.2315 12.8009 30.1069 16.4222 22.0303 32.7255C19.4703 37.8673 17.0754 42.1312 15.4237 45C13.2766 40.6577 11.4267 36.8483 9.92371 33.7444C2.39218 18.2406 1.30208 15.5443 2.32611 12.0955C3.79608 7.11046 9.24653 2 15.7045 2C21.8156 2 26.9522 6.60882 28.6369 11.2333Z" stroke="#B47746" stroke-width="2.66524" stroke-miterlimit="10"/>
<path d="M15.4898 21.266C17.7885 21.266 19.652 19.5325 19.652 17.394C19.652 15.2555 17.7885 13.522 15.4898 13.522C13.1911 13.522 11.3276 15.2555 11.3276 17.394C11.3276 19.5325 13.1911 21.266 15.4898 21.266Z" fill="#B47746"/>
</svg>
