<svg width="82" height="102" viewBox="0 0 82 102" fill="none" xmlns="http://www.w3.org/2000/svg">
<g filter="url(#filter0_i_54_80)">
<path d="M59.6942 19.8312L77.0454 35.4537L79.4604 37.6319C79.7092 37.859 80.0483 37.988 80.4029 37.9904C80.7575 37.9928 81.0987 37.8684 81.3513 37.6446C81.6039 37.4208 81.7473 37.1159 81.75 36.797C81.7527 36.4781 81.6143 36.1713 81.3655 35.9441L63.9931 20.3216L61.571 18.1434C61.3221 17.9196 60.9846 17.7939 60.6326 17.7939C60.2806 17.7939 59.9431 17.9196 59.6942 18.1434C59.4454 18.3673 59.3055 18.6708 59.3055 18.9873C59.3055 19.3038 59.4454 19.6074 59.6942 19.8312Z" fill="#4D2B17"/>
<path d="M2.26545 37.6319L19.6166 22.0093L33.7808 9.2718L41.8048 2.03052H39.9281L51.3019 12.2779L52.9591 13.7681C54.1702 14.8572 56.0469 13.1631 54.8359 12.074L43.4549 1.83309L41.8048 0.342796C41.5536 0.122987 41.2169 0 40.8664 0C40.5159 0 40.1793 0.122987 39.9281 0.342796L22.584 15.9654L8.41979 28.7029L0.388689 35.9442C0.139816 36.168 -6.93797e-09 36.4715 0 36.788C6.93797e-09 37.1045 0.139816 37.4081 0.388689 37.6319C0.637562 37.8557 0.975107 37.9814 1.32707 37.9814C1.67903 37.9814 2.01657 37.8557 2.26545 37.6319Z" fill="#4D2B17"/>
<path d="M59.3047 4.7181V18.9841C59.3292 19.2858 59.4798 19.5679 59.7261 19.7738C59.9724 19.9797 60.2963 20.0942 60.6326 20.0942C60.9689 20.0942 61.2928 19.9797 61.5391 19.7738C61.7854 19.5679 61.936 19.2858 61.9605 18.9841V4.7181C61.936 4.41646 61.7854 4.13434 61.5391 3.92842C61.2928 3.7225 60.9689 3.60804 60.6326 3.60804C60.2963 3.60804 59.9724 3.7225 59.7261 3.92842C59.4798 4.13434 59.3292 4.41646 59.3047 4.7181Z" fill="#4D2B17"/>
<path d="M55.2253 12.5326V4.71811L53.901 5.91544H60.6361C60.9715 5.89339 61.2852 5.75801 61.5142 5.5365C61.7432 5.31498 61.8705 5.02374 61.8705 4.7213C61.8705 4.41885 61.7432 4.12761 61.5142 3.90609C61.2852 3.68458 60.9715 3.5492 60.6361 3.52715H53.901C53.5502 3.53043 53.2147 3.65677 52.966 3.87923C52.7173 4.10169 52.5751 4.4027 52.5695 4.71811V12.5326C52.5941 12.8342 52.7446 13.1163 52.9909 13.3223C53.2373 13.5282 53.5611 13.6426 53.8974 13.6426C54.2338 13.6426 54.5576 13.5282 54.804 13.3223C55.0503 13.1163 55.2008 12.8342 55.2253 12.5326Z" fill="#4D2B17"/>
<path d="M64.3188 41.262C64.5596 43.7267 64.7437 46.1596 64.7437 48.6371C64.7437 49.8025 64.7862 50.968 64.68 52.1271L64.5737 53.2799C64.5737 53.4009 64.5737 53.5283 64.5383 53.6493C64.5383 53.3818 64.5383 53.5155 64.5383 53.7002C64.4109 54.4072 64.3471 55.1459 64.163 55.8465C63.9803 56.4085 63.7579 56.9594 63.4973 57.496C63.6106 57.2221 63.4973 57.547 63.4052 57.6743C63.3131 57.8017 63.2494 58.0182 63.1502 58.1838C63.0511 58.3494 62.8245 58.687 62.6545 58.9353C62.274 59.4794 61.8578 60.0026 61.408 60.5021C61.2876 60.6358 61.6347 60.2983 61.408 60.5021C61.2735 60.6231 61.146 60.7504 61.0185 60.8714C60.7777 61.1071 60.544 61.3427 60.3103 61.5656C59.8571 61.9732 59.3755 62.3745 58.8939 62.7566C58.5964 62.9922 58.2848 63.2088 57.9803 63.4444C57.8103 63.5782 57.7537 63.61 57.9166 63.5017C57.7608 63.61 57.5979 63.7119 57.435 63.8138C56.2212 64.5522 55.0621 65.3606 53.9648 66.2339C52.904 67.1292 52.0203 68.1801 51.3515 69.3419C50.7327 70.6177 50.3453 71.9745 50.2042 73.3606L51.054 72.7747H43.1575L44.0427 73.5707C44.0427 71.6601 43.9365 69.7113 44.0427 67.8007C44.0427 67.6096 44.0923 67.4122 44.1136 67.2211C44.1348 67.03 44.1561 66.8963 44.1702 66.7307C44.1844 66.5651 44.2269 66.4441 44.1702 66.6925C44.2977 66.1384 44.411 65.578 44.5526 65.0302C44.6943 64.4825 44.8147 64.1131 44.9705 63.661C44.8572 63.8775 45.0271 63.4826 44.9705 63.661C45.0838 63.4444 45.1192 63.3616 45.2042 63.2152C45.2892 63.0687 45.4308 62.8267 45.5512 62.6356C45.6716 62.4445 45.7141 62.3999 45.7849 62.2726C45.8558 62.1452 45.8345 62.1707 45.7849 62.228C45.9691 61.9923 46.1957 61.7822 46.394 61.5911C46.6914 61.2599 46.9889 60.9542 47.3147 60.6358C48.1362 59.8652 48.9648 59.1073 49.7792 58.3367C51.2753 56.9489 52.6486 55.4584 53.8869 53.8785C55.2042 52.0937 56.1497 50.1083 56.6772 48.0193L55.5866 48.5734C55.7494 48.6116 55.9053 48.6625 56.0681 48.6944L56.3373 48.7644C56.1744 48.7007 56.1602 48.7007 56.2877 48.7644C56.4152 48.8281 56.7409 49.0319 56.7339 49.0383C56.7268 49.0447 56.3089 48.5734 56.6772 49.0829C56.7763 49.2166 56.8897 49.3504 56.9746 49.4905C56.7905 49.1848 56.9746 49.6242 56.9746 49.707C56.9746 49.7898 57.1305 50.2866 57.0596 49.9108C57.0596 50.0318 57.0596 50.1528 57.0596 50.2675C57.0807 50.5155 57.0807 50.7646 57.0596 51.0126C57.0596 51.2037 57.0101 51.3884 56.9888 51.5731C56.9888 51.6495 56.8967 52.0953 56.9888 51.7132C56.8684 52.2673 56.7268 52.815 56.5639 53.3627C56.4931 53.5983 56.4152 53.8276 56.3302 54.0632C56.3302 54.1206 56.1177 54.6301 56.2735 54.2798C56.2098 54.4263 56.1248 54.5664 56.054 54.7065C55.8203 55.1587 55.5795 55.6109 55.3458 56.0503C54.8146 56.9992 54.1347 57.8527 53.5469 58.7634C53.4609 58.9004 53.4216 59.0571 53.4338 59.214C53.446 59.3709 53.5093 59.5211 53.6157 59.646C53.7221 59.7709 53.8669 59.8648 54.0323 59.9163C54.1976 59.9677 54.376 59.9743 54.5455 59.9352C55.3288 59.6354 56.0316 59.188 56.6064 58.6233C57.1871 58.1584 57.7678 57.6871 58.3557 57.2285C59.6753 56.2854 60.7915 55.1327 61.6488 53.8276C62.4279 52.4838 62.5058 50.8916 62.6828 49.3695C62.8599 47.8473 62.8811 46.4271 63.0298 44.9623C63.0298 44.854 63.1219 44.1789 63.0298 44.5674C63.0298 44.3063 63.1007 44.0388 63.1573 43.7777C63.1927 43.6121 63.2352 43.4529 63.2848 43.2873C63.3344 43.1217 63.3344 43.1217 63.3556 43.0389C63.3769 42.9561 63.391 42.9243 63.3556 43.0771L63.4902 42.8733L63.6531 42.6186C63.7664 42.4466 63.4973 42.746 63.7876 42.4721C63.85 42.4033 63.9162 42.3374 63.9859 42.2747C64.1417 42.1409 63.8018 42.3384 64.1276 42.2046C64.5523 42.0889 64.9939 42.031 65.4378 42.0327C66.5638 41.8862 66.0893 40.3513 64.9703 40.4978C64.0901 40.5171 63.2515 40.8383 62.6262 41.3958C62.0888 41.9335 61.7284 42.595 61.5851 43.3064C61.3143 44.8257 61.1605 46.36 61.1248 47.8983C61.0681 48.7007 60.9831 49.4905 60.891 50.2866C60.8415 50.7133 60.891 50.2866 60.891 50.4522C60.891 50.6177 60.8131 50.9107 60.7777 51.14C60.7369 51.4706 60.6707 51.7984 60.5794 52.1208C60.5086 52.35 60.4095 52.5666 60.3386 52.7576C60.2395 53.1079 60.4661 52.6366 60.2537 52.9423C60.1262 53.127 60.0199 53.3245 59.9066 53.5155C59.7933 53.7066 60.0837 53.3117 59.9066 53.5155C59.8287 53.6174 59.7296 53.7193 59.6446 53.8149C59.1449 54.4019 58.5931 54.9514 57.9945 55.458C57.3429 56.0121 56.6418 56.528 55.969 57.0693C55.6574 57.324 55.3387 57.5724 55.02 57.8208C54.7013 58.0692 54.5313 58.1775 54.3118 58.3749C53.9364 58.6997 54.8146 58.2284 54.156 58.3749L55.1616 59.5786C57.1375 56.5216 59.7862 52.9487 58.7027 49.223C58.5348 48.6737 58.1989 48.1777 57.7332 47.7915C57.2675 47.4054 56.6906 47.1445 56.0681 47.0385C55.8419 46.9835 55.6006 47.0108 55.3965 47.1145C55.1925 47.2182 55.0419 47.3899 54.9775 47.5926C54.7125 48.5291 54.3838 49.4501 53.9931 50.3503L53.8231 50.7515C53.7098 51.019 53.8231 50.7897 53.8231 50.7961C53.6744 51.0827 53.5327 51.3756 53.3699 51.6559C53.109 52.0738 52.818 52.4759 52.4988 52.8595C52.2155 53.248 51.9039 53.6111 51.5923 53.9805C51.8401 53.6875 51.3585 54.2416 51.2736 54.3371C51.0965 54.5409 50.9265 54.7447 50.7424 54.974C50.0342 55.7128 49.326 56.4197 48.6178 57.1139C47.2014 58.4959 45.4308 59.8079 44.3048 61.4255C43.2022 63.1549 42.5485 65.0861 42.3926 67.0746C42.2309 69.239 42.2002 71.4097 42.3005 73.5771C42.3024 73.7877 42.3963 73.9893 42.5619 74.1382C42.7275 74.2871 42.9516 74.3715 43.1858 74.3732H51.0469C51.2412 74.3728 51.43 74.3153 51.5847 74.2095C51.7394 74.1038 51.8514 73.9555 51.9039 73.7873C52.0101 73.1886 52.0951 72.5836 52.2438 71.9849C52.3146 71.7111 52.3784 71.45 52.4704 71.1825C52.5625 70.915 52.5767 70.8322 52.6404 70.6602C52.4917 70.9468 52.7041 70.4883 52.6404 70.6602L52.8104 70.3418C52.9591 70.0743 53.1149 69.8132 53.2636 69.5521C53.3132 69.4629 53.5327 69.0808 53.3344 69.361C53.4536 69.2109 53.5812 69.0663 53.7169 68.9279C54.1543 68.4214 54.6274 67.9406 55.1333 67.4886C55.3174 67.3166 55.5228 67.1638 55.7211 67.0109L56.2381 66.597C56.5001 66.3868 56.0398 66.7052 56.3585 66.5078C56.918 66.1703 57.4633 65.8072 58.0016 65.4506C59.187 64.6698 60.3132 63.8187 61.3726 62.9031C62.3042 62.1094 63.1376 61.2275 63.8584 60.2728C64.6359 59.1666 65.2614 57.9797 65.721 56.7381C66.0945 55.6572 66.3135 54.5379 66.3726 53.4073C66.5142 52.0507 66.5567 50.7451 66.5567 49.3886C66.5567 46.6627 66.3938 43.9879 66.1318 41.2748C65.9902 40.2494 64.2196 40.2367 64.3188 41.262Z" fill="#4D2B17"/>
<path d="M8.62598 79.7092V80.7458H8.31982C8.05843 80.7458 7.89372 80.7834 7.82568 80.8586C7.75765 80.9338 7.72363 81.12 7.72363 81.4172V85.4777C7.72363 85.7892 7.75944 85.9826 7.83105 86.0578C7.90625 86.1294 8.09961 86.1652 8.41113 86.1652H8.62598V87.2018H4.95752V86.1652H5.19922C5.5 86.1652 5.6862 86.1258 5.75781 86.0471C5.83301 85.9647 5.87061 85.7749 5.87061 85.4777V80.8854H3.14209V85.4777C3.14209 85.7892 3.17611 85.9826 3.24414 86.0578C3.31217 86.1294 3.49658 86.1652 3.79736 86.1652H4.0498V87.2018H0.39209V86.1652H0.63916C0.93278 86.1652 1.11361 86.1258 1.18164 86.0471C1.25326 85.9647 1.28906 85.7946 1.28906 85.5368V81.4655C1.28906 81.1468 1.25326 80.9481 1.18164 80.8693C1.11361 80.787 0.961426 80.7458 0.725098 80.7458H0.39209V79.7092H8.62598ZM11.752 81.7126V82.3088C12.1602 82.0581 12.4717 81.897 12.6865 81.8254C12.9049 81.7502 13.1377 81.7126 13.3848 81.7126C14.0114 81.7126 14.5216 81.9435 14.9155 82.4055C15.3667 82.9354 15.5923 83.6122 15.5923 84.4357C15.5923 85.2235 15.3953 85.8823 15.0015 86.4123C14.5503 87.0246 13.9451 87.3307 13.186 87.3307C12.9425 87.3307 12.7295 87.3021 12.5469 87.2448C12.3643 87.1911 12.1655 87.0908 11.9507 86.944V88.0236C11.9507 88.2385 11.9614 88.3674 11.9829 88.4103C12.008 88.4641 12.0474 88.5016 12.1011 88.5231C12.1584 88.5482 12.298 88.5607 12.52 88.5607H12.7725V89.5974H9.43164V88.5607H9.61426C9.86133 88.5607 10.0099 88.55 10.0601 88.5285C10.1138 88.5106 10.1549 88.4694 10.1836 88.405C10.2158 88.3441 10.2319 88.217 10.2319 88.0236V83.2111H9.43164V82.1691C9.81836 82.1226 10.1478 82.0653 10.4199 81.9973C10.6921 81.9292 10.9678 81.8343 11.2471 81.7126H11.752ZM11.9507 83.3884V85.1393C11.9507 85.4151 11.9757 85.612 12.0259 85.7302C12.0796 85.8447 12.1691 85.9396 12.2944 86.0148C12.4233 86.0864 12.5701 86.1223 12.7349 86.1223C13.0249 86.1223 13.2648 85.988 13.4546 85.7194C13.6479 85.4509 13.7446 85.0427 13.7446 84.4948C13.7446 83.9863 13.6605 83.6104 13.4922 83.3669C13.3275 83.1198 13.1234 82.9963 12.8799 82.9963C12.6006 82.9963 12.2909 83.127 11.9507 83.3884ZM19.6743 81.8415V82.8781H19.5132C19.3162 82.8781 19.1927 82.9068 19.1426 82.9641C19.0924 83.0178 19.0674 83.1592 19.0674 83.3884V84.5593L20.77 83.3884C20.77 83.1556 20.745 83.0124 20.6948 82.9587C20.6447 82.905 20.5212 82.8781 20.3242 82.8781H20.1631V81.8415H23.2837V82.8781H23.1279C22.8415 82.8781 22.6624 82.9032 22.5908 82.9533C22.5228 83.0034 22.4888 83.1341 22.4888 83.3454V85.7033C22.4888 85.911 22.5228 86.0399 22.5908 86.09C22.6589 86.1402 22.8379 86.1652 23.1279 86.1652H23.2837V87.2018H20.1631V86.1652H20.3242C20.5247 86.1652 20.6483 86.1384 20.6948 86.0847C20.745 86.0274 20.77 85.8841 20.77 85.655V84.4948L19.0674 85.655C19.0674 85.8877 19.0924 86.0309 19.1426 86.0847C19.1927 86.1384 19.3162 86.1652 19.5132 86.1652H19.6743V87.2018H16.5537V86.1652H16.7095C16.9959 86.1652 17.1732 86.1402 17.2412 86.09C17.3128 86.0399 17.3486 85.911 17.3486 85.7033V83.3454C17.3486 83.1377 17.3146 83.0088 17.2466 82.9587C17.1785 82.905 16.9995 82.8781 16.7095 82.8781H16.5537V81.8415H19.6743ZM26.689 84.9728V85.655C26.689 85.8877 26.714 86.0309 26.7642 86.0847C26.8143 86.1384 26.9378 86.1652 27.1348 86.1652H27.2959V87.2018H24.1753V86.1652H24.3311C24.6175 86.1652 24.7948 86.1402 24.8628 86.09C24.9344 86.0399 24.9702 85.911 24.9702 85.7033V83.3454C24.9702 83.1377 24.9362 83.0088 24.8682 82.9587C24.8001 82.905 24.6211 82.8781 24.3311 82.8781H24.1753V81.8415H27.2959V82.8781H27.1348C26.9378 82.8781 26.8143 82.9068 26.7642 82.9641C26.714 83.0178 26.689 83.1592 26.689 83.3884V83.9523H27.978C28.0353 83.3687 28.3343 82.8495 28.875 82.3947C29.4193 81.94 30.0996 81.7126 30.916 81.7126C31.8005 81.7126 32.5238 81.965 33.0859 82.4699C33.6517 82.9712 33.9346 83.6498 33.9346 84.5056C33.9346 85.3434 33.6624 86.0238 33.1182 86.5466C32.5775 87.0694 31.8524 87.3307 30.9429 87.3307C30.0763 87.3307 29.3763 87.1052 28.8428 86.654C28.3092 86.1992 28.021 85.6389 27.978 84.9728H26.689ZM32.0601 84.5378C32.0601 84.015 31.958 83.6122 31.7539 83.3293C31.5534 83.0428 31.2812 82.8996 30.9375 82.8996C30.6224 82.8996 30.3538 83.0339 30.1318 83.3024C29.9134 83.5674 29.8042 83.9738 29.8042 84.5217C29.8042 85.0659 29.9045 85.4795 30.105 85.7624C30.3091 86.0417 30.5776 86.1813 30.9106 86.1813C31.2222 86.1813 31.4907 86.0488 31.7163 85.7839C31.9455 85.5189 32.0601 85.1035 32.0601 84.5378ZM39.9126 81.5891H40.6323L41.4487 83.6677L40.5088 84.0974C40.1686 83.3132 39.6763 82.9211 39.0317 82.9211C38.8455 82.9211 38.7524 83.0357 38.7524 83.2648V85.7033C38.7524 85.911 38.7865 86.0399 38.8545 86.09C38.9225 86.1402 39.1016 86.1652 39.3916 86.1652H39.5474V87.2018H36.2388V86.1652H36.3945C36.681 86.1652 36.8582 86.1402 36.9263 86.09C36.9979 86.0399 37.0337 85.911 37.0337 85.7033V83.2648C37.0337 83.0357 36.9388 82.9211 36.749 82.9211C36.1045 82.9211 35.6139 83.3132 35.2773 84.0974L34.3374 83.6677L35.1538 81.5891H35.8682L35.9595 81.8415H39.8213L39.9126 81.5891ZM50.4668 85.1716L51.2563 85.8644C50.8338 86.3765 50.3952 86.7489 49.9404 86.9816C49.4857 87.2144 48.9987 87.3307 48.4795 87.3307C47.6488 87.3307 46.9541 87.0604 46.3955 86.5197C45.8405 85.979 45.563 85.3202 45.563 84.5432C45.563 84.0168 45.6919 83.5352 45.9497 83.0983C46.2111 82.6615 46.5674 82.3213 47.0186 82.0778C47.4733 81.8343 48.0086 81.7126 48.6245 81.7126C49.3621 81.7126 49.9637 81.8845 50.4292 82.2282C50.8983 82.5684 51.1328 82.9282 51.1328 83.3078C51.1328 83.4689 51.0952 83.614 51.02 83.7429C50.9484 83.8682 50.8374 83.9702 50.687 84.049C50.5366 84.1278 50.3773 84.1672 50.209 84.1672C50.0729 84.1672 49.9512 84.1403 49.8438 84.0866C49.7363 84.0329 49.6468 83.9649 49.5752 83.8825C49.543 83.8467 49.4803 83.7357 49.3872 83.5495C49.269 83.3168 49.1777 83.1628 49.1133 83.0876C49.0488 83.0124 48.9718 82.9551 48.8823 82.9157C48.7928 82.8727 48.6908 82.8513 48.5762 82.8513C48.39 82.8513 48.2109 82.9121 48.0391 83.0339C47.8708 83.152 47.7311 83.3329 47.6201 83.5764C47.5127 83.8198 47.459 84.092 47.459 84.3928C47.459 84.7222 47.5234 85.0194 47.6523 85.2844C47.7812 85.5458 47.9531 85.7445 48.168 85.8806C48.3864 86.0166 48.6263 86.0847 48.8877 86.0847C49.1383 86.0847 49.3908 86.0166 49.645 85.8806C49.8993 85.7445 50.1732 85.5082 50.4668 85.1716ZM54.9355 81.7126C55.5479 81.7126 56.0814 81.8325 56.5361 82.0724C56.9909 82.3124 57.34 82.64 57.5835 83.0554C57.8306 83.4671 57.9541 83.9505 57.9541 84.5056C57.9541 85.3434 57.682 86.0238 57.1377 86.5466C56.5934 87.0694 55.8665 87.3307 54.957 87.3307C54.0296 87.3307 53.292 87.0676 52.7441 86.5412C52.2142 86.0399 51.9492 85.3613 51.9492 84.5056C51.9492 83.9434 52.0692 83.46 52.3091 83.0554C52.5526 82.6507 52.9035 82.3267 53.3618 82.0832C53.8201 81.8361 54.3447 81.7126 54.9355 81.7126ZM54.957 82.8889C54.7529 82.8889 54.5614 82.9497 54.3823 83.0715C54.2033 83.1932 54.0636 83.3723 53.9634 83.6086C53.8667 83.8449 53.8184 84.1457 53.8184 84.5109C53.8184 84.8869 53.8667 85.1984 53.9634 85.4455C54.0601 85.6926 54.1925 85.8752 54.3608 85.9933C54.5327 86.1115 54.7207 86.1706 54.9248 86.1706C55.2399 86.1706 55.5103 86.0381 55.7358 85.7731C55.9614 85.5046 56.0742 85.0892 56.0742 84.527C56.0742 83.9828 55.9686 83.5746 55.7573 83.3024C55.5496 83.0267 55.2829 82.8889 54.957 82.8889ZM64.9741 78.9035C64.9491 79.1971 64.8613 79.5194 64.7109 79.8703C64.5605 80.2176 64.3547 80.4611 64.0933 80.6008C63.8319 80.7404 63.3932 80.8102 62.7773 80.8102H61.4883C60.9189 80.8102 60.5161 80.9302 60.2798 81.1701C60.0435 81.4064 59.8931 81.8469 59.8286 82.4914L59.9199 82.5236C60.389 81.9829 61.0371 81.7126 61.8643 81.7126C62.6234 81.7126 63.2983 81.9471 63.8892 82.4162C64.48 82.8853 64.7754 83.5817 64.7754 84.5056C64.7754 85.3434 64.5033 86.0238 63.959 86.5466C63.4147 87.0694 62.6878 87.3307 61.7783 87.3307C59.7588 87.3307 58.749 86.1294 58.749 83.7267C58.749 83.0965 58.8242 82.3965 58.9746 81.6266C59.125 80.8532 59.415 80.2767 59.8447 79.8972C60.2744 79.514 60.842 79.3224 61.5474 79.3224H63.105C63.5454 79.3224 63.8319 79.2759 63.9644 79.1828C64.1004 79.0897 64.2078 78.9268 64.2866 78.694L64.9741 78.9035ZM62.8955 84.527C62.8955 84.0007 62.7935 83.596 62.5894 83.3132C62.3888 83.0303 62.1185 82.8889 61.7783 82.8889C61.4632 82.8889 61.1947 83.0213 60.9727 83.2863C60.7507 83.5513 60.6396 83.9595 60.6396 84.5109C60.6396 85.0552 60.7399 85.4688 60.9404 85.7516C61.1445 86.0309 61.4131 86.1706 61.7461 86.1706C62.0576 86.1706 62.3262 86.0381 62.5518 85.7731C62.7809 85.5082 62.8955 85.0928 62.8955 84.527ZM68.8413 83.9523V83.5549C68.8413 83.3185 68.8216 83.1556 68.7822 83.0661C68.7428 82.9766 68.6712 82.9032 68.5674 82.8459C68.4635 82.785 68.3346 82.7546 68.1807 82.7546C68.0625 82.7546 67.9551 82.7743 67.8584 82.8137C67.7617 82.853 67.6847 82.9032 67.6274 82.9641C67.5701 83.0249 67.5039 83.1431 67.4287 83.3185C67.332 83.5405 67.2157 83.6999 67.0796 83.7966C66.9471 83.8932 66.7896 83.9416 66.6069 83.9416C66.3778 83.9416 66.1898 83.87 66.043 83.7267C65.8962 83.5835 65.8228 83.4063 65.8228 83.195C65.8228 82.9551 65.8979 82.742 66.0483 82.5558C66.2489 82.3088 66.5479 82.1065 66.9453 81.9489C67.3428 81.7914 67.7904 81.7126 68.2881 81.7126C68.7858 81.7126 69.2083 81.7932 69.5557 81.9543C69.9066 82.1154 70.1501 82.3088 70.2861 82.5344C70.4258 82.7564 70.4956 83.0965 70.4956 83.5549V85.4777C70.4956 85.7141 70.5081 85.8662 70.5332 85.9343C70.5583 85.9987 70.612 86.056 70.6943 86.1061C70.7767 86.1563 70.868 86.1813 70.9683 86.1813C71.0685 86.1813 71.2028 86.1527 71.3711 86.0954V87.1428C71.0667 87.2394 70.7749 87.2878 70.4956 87.2878C70.1662 87.2878 69.8851 87.2341 69.6523 87.1266C69.4196 87.0192 69.2244 86.8581 69.0669 86.6432C68.7088 86.876 68.383 87.0425 68.0894 87.1428C67.7993 87.2394 67.5182 87.2878 67.2461 87.2878C66.734 87.2878 66.3205 87.1446 66.0054 86.8581C65.6903 86.5681 65.5327 86.2118 65.5327 85.7892C65.5327 85.5493 65.5864 85.3291 65.6938 85.1286C65.8049 84.9281 65.9678 84.7526 66.1826 84.6022C66.401 84.4518 66.7358 84.3194 67.187 84.2048C67.6418 84.0866 68.1932 84.0025 68.8413 83.9523ZM68.8413 84.8439C68.3722 84.912 68.041 84.9818 67.8477 85.0534C67.6543 85.1214 67.5164 85.2092 67.4341 85.3166C67.3517 85.4204 67.3105 85.5279 67.3105 85.6389C67.3105 85.7821 67.3643 85.902 67.4717 85.9987C67.5791 86.0954 67.7241 86.1437 67.9067 86.1437C68.0249 86.1437 68.161 86.1133 68.3149 86.0524C68.4725 85.9916 68.6479 85.902 68.8413 85.7839V84.8439ZM72.0479 87.2018V86.1652H72.2036C72.4901 86.1652 72.6673 86.1402 72.7354 86.09C72.807 86.0399 72.8428 85.911 72.8428 85.7033V83.3454C72.8428 83.1377 72.8088 83.0088 72.7407 82.9587C72.6727 82.905 72.4937 82.8781 72.2036 82.8781H72.0479V81.8415H75.0181V82.8781C74.8032 82.8781 74.6725 82.9068 74.626 82.9641C74.583 83.0213 74.5615 83.1395 74.5615 83.3185V84.1564L75.7056 83.2702C75.8595 83.152 75.9365 83.0643 75.9365 83.007C75.9365 82.9211 75.7843 82.8781 75.48 82.8781V81.8415H78.5952V82.8781C78.3875 82.8781 78.2282 82.8996 78.1172 82.9426C78.0062 82.9855 77.8218 83.0947 77.564 83.2702L76.4307 84.0436L77.9131 85.7678C78.0706 85.9504 78.196 86.0632 78.2891 86.1061C78.3857 86.1455 78.5701 86.1652 78.8423 86.1652V87.2018H75.582V86.1652H75.7056C75.9204 86.1652 76.0278 86.1223 76.0278 86.0363C76.0278 85.9826 75.9705 85.8806 75.856 85.7302L75.2383 84.9352L74.5615 85.4401V85.7302C74.5615 85.902 74.5884 86.0184 74.6421 86.0793C74.6994 86.1366 74.8068 86.1652 74.9644 86.1652H75.0771V87.2018H72.0479Z" fill="#B47746"/>
<path d="M13.3589 94.3256L14.0571 94.5673L13.4663 96.3398L14.0571 98.1068L13.3589 98.3485L12.2954 96.3398L13.3589 94.3256ZM15.3354 94.3256L16.0391 94.5673L15.4429 96.3398L16.0391 98.1068L15.3354 98.3485L14.2773 96.3398L15.3354 94.3256ZM18.2627 92.5531V91.5165H24.9604V92.5531H24.6597C24.3983 92.5531 24.2336 92.5907 24.1655 92.6659C24.0975 92.7411 24.0635 92.9273 24.0635 93.2245V97.2851C24.0635 97.5966 24.0993 97.7899 24.1709 97.8651C24.2461 97.9368 24.4377 97.9726 24.7456 97.9726H24.9604L25.7554 100.18L24.7778 100.529C24.6095 100.1 24.3678 99.7379 24.0527 99.4442C23.7376 99.1542 23.2327 99.0092 22.5381 99.0092H19.2939C18.6029 99.0092 18.0998 99.1542 17.7847 99.4442C17.4696 99.7343 17.2261 100.096 17.0542 100.529L16.082 100.18L16.877 97.9726H17.1509C17.5054 97.9726 17.7417 97.7882 17.8599 97.4193L19.1812 93.2729C19.217 93.1619 19.2349 93.0723 19.2349 93.0043C19.2349 92.7035 19.0218 92.5531 18.5957 92.5531H18.2627ZM22.2104 97.8383V92.6928H20.583L19.2134 97.3495C19.1883 97.4319 19.1758 97.5017 19.1758 97.559C19.1758 97.7452 19.3494 97.8383 19.6968 97.8383H22.2104ZM28.4033 93.5199V94.1161C28.8115 93.8655 29.123 93.7043 29.3379 93.6327C29.5563 93.5575 29.7891 93.5199 30.0361 93.5199C30.6628 93.5199 31.173 93.7509 31.5669 94.2128C32.0181 94.7427 32.2437 95.4195 32.2437 96.2431C32.2437 97.0308 32.0467 97.6897 31.6528 98.2196C31.2017 98.8319 30.5965 99.1381 29.8374 99.1381C29.5939 99.1381 29.3809 99.1094 29.1982 99.0522C29.0156 98.9984 28.8169 98.8982 28.6021 98.7514V99.831C28.6021 100.046 28.6128 100.175 28.6343 100.218C28.6593 100.271 28.6987 100.309 28.7524 100.33C28.8097 100.356 28.9494 100.368 29.1714 100.368H29.4238V101.405H26.083V100.368H26.2656C26.5127 100.368 26.6613 100.357 26.7114 100.336C26.7651 100.318 26.8063 100.277 26.835 100.212C26.8672 100.151 26.8833 100.024 26.8833 99.831V95.0185H26.083V93.9765C26.4697 93.9299 26.7992 93.8726 27.0713 93.8046C27.3434 93.7366 27.6191 93.6417 27.8984 93.5199H28.4033ZM28.6021 95.1957V96.9467C28.6021 97.2224 28.6271 97.4193 28.6772 97.5375C28.731 97.6521 28.8205 97.747 28.9458 97.8222C29.0747 97.8938 29.2215 97.9296 29.3862 97.9296C29.6763 97.9296 29.9162 97.7953 30.106 97.5268C30.2993 97.2582 30.396 96.85 30.396 96.3022C30.396 95.7937 30.3118 95.4177 30.1436 95.1742C29.9788 94.9272 29.7747 94.8036 29.5312 94.8036C29.252 94.8036 28.9422 94.9343 28.6021 95.1957ZM32.8076 93.6488H36.1592V94.6855H35.939C35.7384 94.6855 35.6113 94.6998 35.5576 94.7284C35.5075 94.7535 35.4824 94.7911 35.4824 94.8412C35.4824 94.8842 35.52 94.997 35.5952 95.1796L36.4009 97.1186L37.2441 95.1796C37.3086 95.0328 37.3408 94.9272 37.3408 94.8627C37.3408 94.8054 37.314 94.7624 37.2603 94.7338C37.2065 94.7016 37.083 94.6855 36.8896 94.6855H36.5835V93.6488H39.4785V94.6855C39.2243 94.689 39.0757 94.698 39.0327 94.7123C38.9718 94.7266 38.9217 94.7535 38.8823 94.7929C38.8429 94.8323 38.7785 94.9415 38.689 95.1205L36.2612 100.1C36.007 100.619 35.7295 100.982 35.4287 101.19C35.1243 101.398 34.7627 101.501 34.3438 101.501C33.9355 101.501 33.6043 101.392 33.3501 101.174C33.0994 100.959 32.9741 100.715 32.9741 100.443C32.9741 100.228 33.0493 100.042 33.1997 99.8847C33.3501 99.7307 33.5309 99.6537 33.7422 99.6537C33.8854 99.6537 34.0251 99.6895 34.1611 99.7611C34.2507 99.8077 34.342 99.8865 34.4351 99.9975C34.4924 100.069 34.5371 100.114 34.5693 100.132C34.6051 100.153 34.6392 100.164 34.6714 100.164C34.7466 100.164 34.82 100.128 34.8916 100.057C34.999 99.9455 35.1208 99.7432 35.2568 99.4496L35.4609 99.0092L33.6348 95.1796C33.5452 94.9862 33.4754 94.8645 33.4253 94.8144C33.3787 94.7642 33.325 94.7302 33.2642 94.7123C33.2033 94.6944 33.0511 94.6855 32.8076 94.6855V93.6488ZM43.1685 93.6488H45.7305V94.6855C45.5443 94.6926 45.4225 94.7231 45.3652 94.7768C45.3079 94.8305 45.2793 94.9468 45.2793 95.1259V95.9638L46.418 95.0829C46.5755 94.9612 46.6543 94.8752 46.6543 94.8251C46.6543 94.732 46.5003 94.6855 46.1924 94.6855V93.6488H49.1035V94.6855C48.8923 94.6855 48.7222 94.7087 48.5933 94.7553C48.4644 94.7982 48.2907 94.9075 48.0723 95.0829L47.0625 95.8832L48.4106 97.5751C48.5503 97.7506 48.672 97.8616 48.7759 97.9081C48.8833 97.9511 49.0713 97.9726 49.3398 97.9726V99.0092H46.2998V97.9726H46.418C46.6328 97.9726 46.7402 97.9296 46.7402 97.8437C46.7402 97.7899 46.6829 97.6879 46.5684 97.5375L45.9561 96.7426L45.2793 97.2475V97.5375C45.2793 97.713 45.3062 97.8293 45.3599 97.8866C45.4172 97.9439 45.5228 97.9726 45.6768 97.9726H45.7949V99.0092H43.104V97.9726H43.2222C43.3761 97.9726 43.48 97.9439 43.5337 97.8866C43.591 97.8258 43.6196 97.7094 43.6196 97.5375V97.2475L42.9429 96.7426L42.3306 97.5375C42.216 97.6879 42.1587 97.7899 42.1587 97.8437C42.1587 97.9296 42.2661 97.9726 42.481 97.9726H42.5991V99.0092H39.5591V97.9726C39.8205 97.9726 40.0031 97.9529 40.1069 97.9135C40.2144 97.8705 40.3415 97.7577 40.4883 97.5751L41.8364 95.8832L40.8267 95.0829C40.6082 94.9075 40.4328 94.7982 40.3003 94.7553C40.1678 94.7087 39.9995 94.6855 39.7954 94.6855V93.6488H42.7065V94.6855H42.5669C42.3556 94.6855 42.25 94.7302 42.25 94.8197C42.25 94.8734 42.327 94.9612 42.481 95.0829L43.6196 95.9638V95.1259C43.6196 94.9325 43.5892 94.8108 43.5283 94.7607C43.4674 94.7105 43.3475 94.6855 43.1685 94.6855V93.6488ZM52.7559 93.5199C53.3682 93.5199 53.9017 93.6399 54.3564 93.8798C54.8112 94.1197 55.1603 94.4473 55.4038 94.8627C55.6509 95.2745 55.7744 95.7579 55.7744 96.3129C55.7744 97.1508 55.5023 97.8311 54.958 98.3539C54.4137 98.8767 53.6868 99.1381 52.7773 99.1381C51.8499 99.1381 51.1123 98.8749 50.5645 98.3485C50.0345 97.8472 49.7695 97.1687 49.7695 96.3129C49.7695 95.7507 49.8895 95.2673 50.1294 94.8627C50.3729 94.4581 50.7238 94.134 51.1821 93.8905C51.6405 93.6435 52.165 93.5199 52.7559 93.5199ZM52.7773 94.6962C52.5732 94.6962 52.3817 94.7571 52.2026 94.8788C52.0236 95.0006 51.884 95.1796 51.7837 95.4159C51.687 95.6523 51.6387 95.953 51.6387 96.3183C51.6387 96.6942 51.687 97.0058 51.7837 97.2528C51.8804 97.4999 52.0129 97.6825 52.1812 97.8007C52.353 97.9189 52.541 97.9779 52.7451 97.9779C53.0602 97.9779 53.3306 97.8454 53.5562 97.5805C53.7817 97.3119 53.8945 96.8966 53.8945 96.3344C53.8945 95.7901 53.7889 95.3819 53.5776 95.1098C53.37 94.8341 53.1032 94.6962 52.7773 94.6962ZM56.666 99.0092V97.9726H56.8218C57.1082 97.9726 57.2855 97.9475 57.3535 97.8974C57.4251 97.8472 57.4609 97.7183 57.4609 97.5107V95.1527C57.4609 94.9451 57.4269 94.8162 57.3589 94.766C57.2909 94.7123 57.1118 94.6855 56.8218 94.6855H56.666V93.6488H59.6362V94.6855C59.4214 94.6855 59.2907 94.7141 59.2441 94.7714C59.2012 94.8287 59.1797 94.9468 59.1797 95.1259V95.9638L60.3237 95.0775C60.4777 94.9594 60.5547 94.8717 60.5547 94.8144C60.5547 94.7284 60.4025 94.6855 60.0981 94.6855V93.6488H63.2134V94.6855C63.0057 94.6855 62.8464 94.7069 62.7354 94.7499C62.6243 94.7929 62.4399 94.9021 62.1821 95.0775L61.0488 95.851L62.5312 97.5751C62.6888 97.7577 62.8141 97.8705 62.9072 97.9135C63.0039 97.9529 63.1883 97.9726 63.4604 97.9726V99.0092H60.2002V97.9726H60.3237C60.5386 97.9726 60.646 97.9296 60.646 97.8437C60.646 97.7899 60.5887 97.6879 60.4741 97.5375L59.8564 96.7426L59.1797 97.2475V97.5375C59.1797 97.7094 59.2065 97.8258 59.2603 97.8866C59.3175 97.9439 59.425 97.9726 59.5825 97.9726H59.6953V99.0092H56.666ZM66.5166 98.3485L65.8184 98.1068L66.4092 96.3344L65.8184 94.5673L66.5166 94.3256L67.5801 96.3344L66.5166 98.3485ZM64.5347 98.3485L63.8364 98.1068L64.4272 96.3344L63.8364 94.5673L64.5347 94.3256L65.5981 96.3344L64.5347 98.3485Z" fill="#B47746"/>
<path d="M12.9452 41.262C12.7044 43.7331 12.5203 46.166 12.5203 48.6434C12.4119 51.1815 12.6281 53.7223 13.1648 56.2159C13.8989 58.5964 15.3154 60.7618 17.2724 62.4955C18.1824 63.3606 19.1675 64.1593 20.2185 64.8838C20.7072 65.2149 21.21 65.5207 21.7058 65.8518C22.0386 66.0684 22.3715 66.2913 22.7114 66.4887C23.0514 66.6861 22.6335 66.4186 22.7681 66.4887L23.2922 66.909C23.8503 67.3442 24.3734 67.8146 24.8573 68.3165C25.1193 68.5968 25.3814 68.8961 25.6222 69.1891C25.863 69.482 25.5584 69.0044 25.7213 69.3737C25.8205 69.5903 25.9763 69.7941 26.0967 70.0106C26.1604 70.1253 26.2242 70.2399 26.2808 70.3545C26.3375 70.4692 26.38 70.5201 26.4225 70.6093C26.5712 70.9086 26.3445 70.3736 26.4225 70.6539C26.5004 70.9341 26.6491 71.2907 26.7341 71.6601C26.9111 72.348 27.0244 73.0485 27.1448 73.7427C27.1962 73.9115 27.308 74.0604 27.4629 74.1663C27.6178 74.2722 27.8072 74.3293 28.0018 74.3286H35.8629C36.0895 74.3258 36.3065 74.2462 36.4707 74.1057C36.6348 73.9652 36.7339 73.7741 36.7482 73.5708C36.7482 69.8514 37.251 65.5843 35.2326 62.177C34.1774 60.4002 32.4706 58.9927 30.9196 57.5661C30.2114 56.9292 29.5032 56.2223 28.8375 55.5344C28.4763 55.1714 28.1292 54.802 27.7964 54.4199L27.4635 54.0378C27.1944 53.7257 27.4069 53.9805 27.4635 54.0378L26.8332 53.2863C26.4751 52.8509 26.1441 52.398 25.8417 51.9297C25.7213 51.745 25.6222 51.5476 25.5159 51.3502L25.261 50.8661C25.1264 50.6178 25.346 51.0699 25.261 50.7961C24.799 49.7566 24.4064 48.6932 24.0854 47.6117C24.0209 47.409 23.8704 47.2373 23.6663 47.1336C23.4622 47.03 23.221 47.0027 22.9947 47.0576C22.4354 47.1556 21.9115 47.3759 21.4693 47.6991C21.0271 48.0224 20.6802 48.4386 20.4593 48.9109C20.1274 49.8488 20.0473 50.844 20.2256 51.8151C20.5183 53.6019 21.1635 55.3273 22.1307 56.9101C22.6619 57.8399 23.3276 58.6806 23.9154 59.585L24.914 58.4131C24.8069 58.3964 24.7023 58.3686 24.6024 58.3303C25.3531 58.8335 24.8927 58.5086 24.8431 58.445C24.6578 58.2678 24.4511 58.1098 24.227 57.9737L23.3913 57.3368C22.7893 56.8464 22.1803 56.3687 21.5712 55.8847C20.9881 55.4366 20.4348 54.9581 19.914 54.4517C19.7369 54.2671 19.5811 54.0632 19.4183 53.8722C19.3333 53.7767 19.0287 53.3308 19.2129 53.6365L18.9013 53.1143L18.7596 52.8787C18.7596 52.8787 18.8304 53.1016 18.7596 52.815C18.5169 52.0635 18.3347 51.2973 18.2143 50.5222C18.1647 50.2102 18.2143 50.777 18.2143 50.3694C18.2143 50.1019 18.1506 49.8408 18.1151 49.5796C18.0797 49.3185 18.0443 48.9428 18.0231 48.6753C17.9239 47.134 17.8673 45.5864 17.6336 44.0579C17.5681 43.1678 17.2271 42.3119 16.6492 41.5869C16.3312 41.2527 15.9387 40.9825 15.497 40.7937C15.0552 40.605 14.5743 40.502 14.0854 40.4914C12.9735 40.3449 12.492 41.8798 13.6109 42.0263L14.22 42.1091H14.4608C14.9282 42.1664 14.2625 42.0136 14.6237 42.1091C14.7157 42.1091 14.822 42.1919 14.907 42.2301C15.2469 42.3829 14.737 42.0581 14.9778 42.2683C15.0475 42.3311 15.1137 42.397 15.1761 42.4657C15.4664 42.7396 15.1761 42.4657 15.3106 42.6122C15.4452 42.7587 15.6718 43.2491 15.5514 42.9498C15.6245 43.1414 15.6836 43.3371 15.7285 43.5357C15.7285 43.6567 15.7781 43.7713 15.7993 43.8923C15.8205 44.0133 15.9268 44.7903 15.8772 44.4018C16.0543 45.9176 16.0968 47.4397 16.2384 48.9555C16.2832 50.445 16.5671 51.9208 17.0812 53.3372C17.7678 54.6655 18.7885 55.832 20.0627 56.7445L22.2298 58.4704C22.8384 59.0831 23.5874 59.5698 24.4253 59.897C24.5878 59.9279 24.7567 59.9173 24.9129 59.8666C25.0691 59.8158 25.2064 59.7268 25.3095 59.6097C25.4125 59.4925 25.4772 59.3519 25.4961 59.2035C25.5151 59.0551 25.4876 58.9049 25.4168 58.7698C24.829 57.859 24.1562 57.012 23.625 56.0694C23.3701 55.6236 23.1364 55.165 22.9168 54.7129C22.846 54.5728 22.761 54.4326 22.6973 54.2862C22.8531 54.6364 22.6973 54.1269 22.6406 54.0696C22.5556 53.834 22.4777 53.6047 22.4069 53.3691C22.244 52.8213 22.1024 52.2736 21.982 51.7195C22.067 52.1017 21.982 51.6559 21.982 51.5794C21.982 51.3947 21.9253 51.21 21.9112 51.019C21.8948 50.8069 21.8948 50.5941 21.9112 50.3821C21.9112 50.2356 21.9112 50.0891 21.9536 49.9427C21.8828 50.3184 22.0174 49.8025 22.0386 49.7389C22.0599 49.6752 22.2582 49.2166 22.0386 49.5223C22.1236 49.3822 22.2369 49.2485 22.3361 49.1147C22.7044 48.6052 22.2865 49.1147 22.2794 49.0701C22.2723 49.0256 22.6902 48.8154 22.7256 48.7963C22.761 48.7772 22.8389 48.7262 22.676 48.7963L22.9451 48.7262C23.108 48.7262 23.2638 48.6434 23.4267 48.6052L22.3361 48.0511C22.8267 49.9586 23.6565 51.7823 24.7936 53.4518C26.0125 55.0587 27.3871 56.5654 28.9012 57.9546C30.3176 59.3621 31.9961 60.6422 33.2354 62.2089C33.0938 61.986 33.3346 62.3299 33.2354 62.2089C33.3133 62.349 33.4125 62.4828 33.4975 62.6165C33.5825 62.7502 33.717 62.9604 33.8162 63.1324C33.9153 63.3043 33.972 63.4317 34.0499 63.5782C34.1278 63.7247 34.0499 63.6228 34.0499 63.6164C34.1561 63.9348 34.2553 64.2533 34.3544 64.5844C34.4536 64.9156 34.5739 65.4379 34.666 65.8582C34.7298 66.1257 34.7935 66.3868 34.8502 66.6543C34.8502 66.6543 34.8502 66.3868 34.8502 66.6097L34.9139 67.1256C35.0674 69.2648 35.0934 71.4099 34.9918 73.5517L35.8771 72.7556H28.0159L28.8658 73.3415C28.7372 72.1144 28.4178 70.9095 27.9168 69.7622C27.3335 68.6516 26.5592 67.6307 25.6222 66.7371C24.681 65.8722 23.6467 65.0935 22.5344 64.4125L21.6987 63.8711L21.21 63.5527C21.0471 63.4381 21.1746 63.5527 21.21 63.5527C21.3729 63.6673 21.1321 63.4954 21.0967 63.4635C20.5656 63.0559 20.0344 62.6547 19.5245 62.228C19.0146 61.8013 18.5613 61.3873 18.1081 60.9542C17.9593 60.8141 17.8177 60.6677 17.6619 60.5275C17.5061 60.3874 17.7256 60.6231 17.6619 60.5275C17.3928 60.2218 17.1378 59.8907 16.8899 59.5913C16.5323 59.1445 16.2127 58.674 15.9339 58.1838C15.8418 58.0183 15.7639 57.8463 15.6789 57.6743C15.5939 57.5024 15.4664 57.2094 15.5939 57.5215C15.4523 57.1839 15.3177 56.84 15.1761 56.5025C14.9714 55.9604 14.8267 55.4015 14.7441 54.8339C14.6803 54.4581 14.6166 54.076 14.5458 53.7002C14.5458 53.6557 14.4962 53.3563 14.5458 53.5792C14.5953 53.8021 14.5458 53.3882 14.5458 53.3372C14.4183 51.9552 14.3687 50.6241 14.3687 49.2421C14.3687 46.5609 14.5316 43.9306 14.7936 41.262C14.7936 40.243 13.0444 40.2494 12.9452 41.262Z" fill="#4D2B17"/>
<path d="M34.7652 50.6942L35.2397 50.3885L35.87 49.8853L36.4083 49.2739L36.8545 48.5479L37.1023 47.8537L37.2935 46.8156V46.1469L37.4494 45.4782L37.768 45.6437L38.0513 46.0959L38.3417 46.65L38.5896 47.4334V47.5735L38.8162 47.1786V46.9048V46.5609L38.7525 45.9049L38.5896 45.1916L38.4267 44.5037L38.4054 44.0579L38.4479 43.4847L38.5471 42.9243L38.8162 42.2556L39.2411 41.5996L39.9068 40.9309L40.3955 40.4596L41.2666 39.8609L41.7836 39.5807L42.6547 39.1986L43.54 38.9502L44.3969 38.7973L45.6504 38.74L46.7836 38.8228L47.5484 38.9884L48.0513 39.1349L47.5484 38.74L46.9323 38.4279L46.2595 38.1859L47.2085 38.0968H47.7326H48.5399H49.3189H50.5229L51.741 38.0012L53.1362 37.8165L54.4393 37.5745L55.9407 37.0523L57.7962 36.0779L58.809 35.3518L59.6305 34.5685L60.3316 33.6768L59.758 33.9316L58.901 34.0972L57.8316 34.2055L57.003 34.1227L56.0894 34.0144L56.911 33.8488L57.6404 33.5367L58.3345 33.0909L58.809 32.6706L59.156 32.142L59.2835 31.6707L58.901 31.9191L58.3982 32.1165L57.6404 32.3076L56.8755 32.2566L56.3727 32.0019L55.8699 31.3331L55.5795 30.416L55.36 29.3843L54.9917 27.7539L54.4676 26.0789L53.5753 24.181L53.0725 24.5377L52.4209 24.8497L51.7835 25.0599L50.9195 25.3019L50.2042 25.3911H49.4677L50.4592 25.1109L51.3019 24.7033L51.9747 24.181L52.5059 23.6461L52.9875 23.0474L53.3982 22.1812L53.4478 21.5125L53.3699 20.9903L53.115 20.5381L52.8246 20.1751L52.343 19.7356L51.4719 19.1816L50.6787 18.6848L50.1192 18.3345L49.5385 17.9524L48.9365 17.532L48.5682 17.1563L48.3841 16.8633L48.2708 16.6149L48.2495 16.3347L48.2779 15.9781L48.3912 15.615L48.3983 15.1692L48.3062 14.9081L48.0725 14.7425L47.7892 14.6979L47.5484 14.7553L47.3218 14.8444L47.1164 15.0673L46.8827 15.4431L46.7057 15.8698L46.5357 16.3283L46.4719 16.7742L46.4295 17.2646L46.4153 17.704L46.4719 18.1944L46.5782 18.7548L46.7836 19.3662L47.1023 20.1305L47.6263 20.9266L48.2212 21.6908L48.8728 22.4169L48.03 21.7864L47.3785 21.245L46.7198 20.5954L46.217 19.793L45.7921 18.9586L45.6929 18.4555L45.6292 18.0288L44.8431 17.8569L43.8303 17.653L42.8601 17.5257L41.9961 17.4684L41.1108 17.4492H40.1405L39.0641 17.5066L37.9947 17.5639L36.7907 17.6913L35.0768 18.0798L33.9083 18.5001L33.023 18.9204L32.4211 19.1688L31.6916 19.3662L30.9055 19.4809L30.1123 19.5064L29.482 19.449L28.9721 19.3917H28.5613L28.7809 19.6146L29.1987 19.8375L29.5741 20.0095L29.9848 20.0604L31.0967 20.1751L30.6859 20.5636L30.3318 20.9011L29.9211 21.4042L29.5103 21.9074L29.0358 22.6844L28.7171 23.2448L28.3418 24.0537L28.0231 24.9771L27.6548 25.8751L27.3149 26.5821L26.897 27.0279L26.4084 27.4673L25.8418 27.8176L25.2256 28.1106L24.3687 28.4736L23.5968 28.8366L22.7752 29.2697L21.805 29.7728L21.1747 30.1358L20.5231 30.6071L20.1761 30.9192L19.9424 31.4478V31.8554L19.9707 32.2311L20.1195 32.5368L20.3532 32.8871L20.6789 33.2438L21.0543 33.6896L21.3588 34.1354L21.55 34.5366L21.7413 34.9315L21.9466 35.3136L22.2653 35.6957L22.6053 35.9951L23.0373 36.3772L23.5401 36.6829L24.2058 36.8421L24.6591 36.8676L25.6647 36.995L26.4721 37.1542L27.1095 37.237L27.8177 37.307L28.7809 37.3898L29.2554 37.4026L30.2256 37.479L31.1534 37.6127L31.9607 37.7783L32.591 37.9248L32.3361 38.377L32.0811 39.0075L31.8545 39.6762L31.727 40.4023L31.642 41.1984V41.9244L31.7483 42.5804L31.8545 43.0262L32.074 43.7777L32.4211 44.5611L32.8035 45.2871L33.3701 46.0641L33.7808 46.5417L34.3191 47.0704L34.7652 47.7391L35.0768 48.4906L35.2043 49.1084L35.0485 49.9172L34.7652 50.6942Z" fill="#B47746"/>
</g>
<defs>
<filter id="filter0_i_54_80" x="0" y="0" width="81.75" height="105.501" filterUnits="userSpaceOnUse" color-interpolation-filters="sRGB">
<feFlood flood-opacity="0" result="BackgroundImageFix"/>
<feBlend mode="normal" in="SourceGraphic" in2="BackgroundImageFix" result="shape"/>
<feColorMatrix in="SourceAlpha" type="matrix" values="0 0 0 0 0 0 0 0 0 0 0 0 0 0 0 0 0 0 127 0" result="hardAlpha"/>
<feOffset dy="4"/>
<feGaussianBlur stdDeviation="2"/>
<feComposite in2="hardAlpha" operator="arithmetic" k2="-1" k3="1"/>
<feColorMatrix type="matrix" values="0 0 0 0 1 0 0 0 0 1 0 0 0 0 1 0 0 0 0.2 0"/>
<feBlend mode="normal" in2="shape" result="effect1_innerShadow_54_80"/>
</filter>
</defs>
</svg>
