<svg width="27" height="41" viewBox="0 0 27 41" fill="none" xmlns="http://www.w3.org/2000/svg">
<path d="M24.5375 35.0485C24.3113 35.7482 23.968 36.4156 23.5184 37.0293C22.5934 38.386 16.51 38.8609 16.51 38.8609C16.1108 38.976 15.689 39.0204 15.2695 38.9914C14.8501 38.9625 14.4417 38.8608 14.0687 38.6924C13.6956 38.5241 13.3655 38.2924 13.0981 38.0114C12.8306 37.7303 12.6313 37.4056 12.5119 37.0564L2.1482 7.45282C2.01925 7.10289 1.97375 6.73394 2.01445 6.36834C2.05515 6.00274 2.1812 5.6481 2.38496 5.3259C2.58873 5.0037 2.86597 4.72065 3.19988 4.4939C3.5338 4.26715 3.91743 4.10142 4.32755 4.00675L11.336 2.17518C11.6638 2.04772 12.0216 1.98837 12.3806 2.00188C12.7397 2.01539 13.0902 2.10138 13.404 2.25298C13.7178 2.40457 13.9863 2.61758 14.188 2.87498C14.3898 3.13238 14.5191 3.42703 14.5658 3.73541" stroke="#B47746" stroke-width="2.66623" stroke-miterlimit="10"/>
<path d="M13.4213 12.8799C12.4295 15.5106 12.41 18.3433 13.3654 20.9841C14.3209 23.6248 16.2037 25.9422 18.7521 27.6139" stroke="#B47746" stroke-width="2.66623" stroke-miterlimit="10"/>
<path d="M14.1049 3.85884L11.7037 4.48734C10.6097 4.77371 9.99106 5.77332 10.322 6.72002L11.9698 11.434C12.3008 12.3807 13.456 12.916 14.55 12.6296L16.9512 12.0011C18.0452 11.7147 18.6639 10.7151 18.3329 9.76844L16.6851 5.05449C16.3541 4.10778 15.199 3.57247 14.1049 3.85884Z" stroke="#B47746" stroke-width="2.66623" stroke-miterlimit="10"/>
<path d="M21.1501 26.8265L19.6493 27.2193C18.5553 27.5056 17.9366 28.5052 18.2676 29.452L19.9381 34.2308C20.2691 35.1775 21.4243 35.7129 22.5183 35.4265L24.019 35.0337C25.1131 34.7473 25.7317 33.7477 25.4008 32.801L23.7302 28.0221C23.3993 27.0754 22.2441 26.5401 21.1501 26.8265Z" stroke="#B47746" stroke-width="2.66623" stroke-miterlimit="10"/>
</svg>
