<svg width="29" height="24" viewBox="0 0 29 24" fill="none" xmlns="http://www.w3.org/2000/svg">
<path d="M2.28725 10.7048L26.357 2.02813C26.4344 2.00185 26.5185 1.99379 26.6007 2.00477C26.6829 2.01574 26.7603 2.04537 26.825 2.09063C26.8897 2.1359 26.9394 2.19518 26.9691 2.26246C26.9987 2.32974 27.0072 2.40261 26.9938 2.47367L23.0593 21.662C23.047 21.7293 23.0151 21.7928 22.9667 21.8464C22.9182 21.9 22.8547 21.9421 22.7822 21.9686C22.7097 21.995 22.6305 22.005 22.5523 21.9976C22.4741 21.9902 22.3994 21.9657 22.3352 21.9263L15.8444 17.9769C15.7617 17.9258 15.6626 17.8984 15.5609 17.8984C15.4593 17.8984 15.3602 17.9258 15.2774 17.9769L11.5958 20.6577C11.5305 20.7053 11.4511 20.7363 11.3666 20.7472C11.2822 20.7582 11.1958 20.7486 11.1172 20.7197C11.0386 20.6908 10.9708 20.6435 10.9213 20.5833C10.8718 20.523 10.8426 20.452 10.8368 20.3783L10.3221 14.9789C10.3142 14.9129 10.326 14.8463 10.3566 14.7854C10.3872 14.7245 10.4354 14.6716 10.4966 14.6316L22.623 6.32493L8.21961 13.8764C8.1062 13.9821 9.46715 14.6995 9.49333 14.8657C9.57184 15.3641 10.9939 20.9069 10.8456 20.4009L8.22834 13.9142C8.2094 13.8564 8.1762 13.8028 8.13101 13.7572C8.08582 13.7115 8.02973 13.6749 7.96661 13.6499L2.27852 11.4524C2.19483 11.4199 2.1239 11.3671 2.07443 11.3002C2.02496 11.2334 1.9991 11.1555 2.00002 11.0761C2.00095 10.9967 2.02862 10.9193 2.07964 10.8534C2.13066 10.7874 2.20281 10.7358 2.28725 10.7048Z" stroke="#B47746" stroke-width="2.66743" stroke-linecap="round" stroke-linejoin="round"/>
</svg>
