<svg width="29" height="24" viewBox="0 0 29 24" fill="none" xmlns="http://www.w3.org/2000/svg">
<path d="M2.94467 2.97335H6.32585C6.3916 2.97019 6.45665 2.9953 6.51396 3.04596C6.57126 3.09663 6.61864 3.17091 6.65096 3.26078C7.11203 4.71647 9.21641 11.077 10.6942 11.6055C12.172 12.134 11.5218 6.17215 11.3208 4.53103C11.3043 4.41335 11.2623 4.3083 11.2019 4.23388C11.1415 4.15945 11.0665 4.12027 10.9898 4.12307C10.5523 4.12307 9.76614 3.90054 9.86663 3.01044C10.0085 1.73092 15.2281 1.73093 16.0438 2.64884C16.8595 3.56675 15.2576 11.7724 16.9127 11.9671C18.2723 12.134 20.1816 5.97744 20.82 3.78001C20.8973 3.5355 21.0147 3.32764 21.1602 3.17775C21.3056 3.02785 21.4738 2.94131 21.6476 2.927C23.1916 2.74675 24.743 2.7902 26.2819 3.0568C29.2848 3.57603 21.8486 10.5485 22.6347 13.0982C23.4209 15.648 27.0149 19.5885 26.678 20.7012C26.341 21.8138 22.2742 22.3979 21.5116 21.6932C18.556 18.8561 18.1186 16.6679 17.3738 17.1037C16.629 17.5395 16.564 19.978 16.1147 20.4508C15.6655 20.9237 11.8764 21.5264 10.6114 20.5714C6.89332 17.762 2.59591 8.36031 2.06982 4.88336C2.04303 4.75264 2.02132 4.6195 2.00479 4.48467C1.99136 4.28423 2.00624 4.0816 2.04838 3.8912C2.09052 3.7008 2.15888 3.5273 2.2486 3.38302C2.33832 3.23875 2.44721 3.12725 2.56751 3.05644C2.68781 2.98564 2.81658 2.95727 2.94467 2.97335Z" stroke="#B47746" stroke-width="2.66589" stroke-miterlimit="10"/>
</svg>
