<svg width="169" height="116" viewBox="0 0 169 116" fill="none" xmlns="http://www.w3.org/2000/svg">
<g filter="url(#filter0_d_87_89)">
<path d="M54.177 49.2634C58.2948 43.8654 57.5362 35.6296 52.4825 30.8683C47.4288 26.1071 39.9938 26.6233 35.876 32.0214C31.7581 37.4194 32.5167 45.6552 37.5704 50.4164C42.6241 55.1777 50.0591 54.6615 54.177 49.2634Z" fill="#B47746"/>
<path d="M66.5725 37.4524C70.6904 32.0543 69.9317 23.8186 64.878 19.0573C59.8244 14.296 52.3894 14.8123 48.2715 20.2103C44.1536 25.6084 44.9123 33.8441 49.966 38.6054C55.0197 43.3667 62.4547 42.8504 66.5725 37.4524Z" fill="#B47746"/>
<path d="M82.8066 28.1606C86.9244 22.7626 86.1658 14.5268 81.1121 9.76556C76.0584 5.0043 68.6234 5.52052 64.5055 10.9186C60.3877 16.3166 61.1463 24.5524 66.2 29.3137C71.2537 34.0749 78.6887 33.5587 82.8066 28.1606Z" fill="#B47746"/>
<path d="M125.859 48.8423C130.792 43.8789 131.354 35.637 127.115 30.4336C122.876 25.2302 115.44 25.0356 110.508 29.9991C105.575 34.9625 105.013 43.2043 109.252 48.4077C113.491 53.6111 120.927 53.8057 125.859 48.8423Z" fill="#B47746"/>
<path d="M113.362 36.6661C118.284 31.6708 118.816 23.412 114.55 18.2194C110.283 13.0269 102.834 12.867 97.9115 17.8622C92.989 22.8575 92.4571 31.1164 96.7236 36.3089C100.99 41.5015 108.439 41.6614 113.362 36.6661Z" fill="#B47746"/>
<path d="M97.0085 27.8485C101.931 22.8532 102.463 14.5944 98.1964 9.40181C93.9299 4.20926 86.4807 4.04933 81.5582 9.04461C76.6356 14.0399 76.1038 22.2987 80.3703 27.4913C84.6368 32.6839 92.086 32.8438 97.0085 27.8485Z" fill="#B47746"/>
<path d="M54.5436 49.4385C61.5077 49.4385 67.1532 43.6528 67.1532 36.5158C67.1532 29.3787 61.5077 23.593 54.5436 23.593C47.5796 23.593 41.9341 29.3787 41.9341 36.5158C41.9341 43.6528 47.5796 49.4385 54.5436 49.4385Z" fill="#B47746"/>
<path d="M81.7989 44.4768C95.7948 44.4768 107.141 36.7625 107.141 27.2464C107.141 17.7304 95.7948 10.0161 81.7989 10.0161C67.803 10.0161 56.4572 17.7304 56.4572 27.2464C56.4572 36.7625 67.803 44.4768 81.7989 44.4768Z" fill="#B47746"/>
<path d="M120.867 41.9434C123.929 38.8366 122.76 31.8743 118.256 26.3926C113.752 20.911 107.619 18.9858 104.557 22.0926C101.495 25.1994 102.665 32.1618 107.169 37.6434C111.673 43.1251 117.806 45.0502 120.867 41.9434Z" fill="#B47746"/>
<path d="M128.754 37.8792H136.506C138.238 37.9233 139.913 38.5745 141.292 39.7398C142.671 40.9051 143.683 42.5249 144.184 44.3678C149.369 61.0165 154.537 77.6834 159.689 94.3685C161.7 100.939 157.751 108 152.01 108H8.20231C2.31458 108 -1.61057 100.639 0.646391 94.014C6.4687 77.3653 12.2747 60.6984 18.0642 44.0134C18.6168 42.2632 19.6356 40.7415 20.9854 39.6506C22.3351 38.5597 23.9517 37.9513 25.6202 37.9064H34.8933" fill="#4D2B17"/>
<path d="M61.4616 58.654L60.9465 57.3181L60.186 56.0913L59.3764 55.2189L58.4442 54.2101L57.6592 53.365L56.4816 52.7107L55.1814 52.3835L54.1265 52.3562L52.998 52.2472L51.477 52.3562L49.8579 52.7379L48.5577 53.1741L47.1103 54.2647L44.1664 57.6453L42.8662 60.1262L42.7926 61.7075L42.6209 63.9704L43.0134 66.9148L43.6267 68.7414L44.6816 70.1864L45.6874 71.2769L46.3253 71.9585L44.559 73.8669L43.6758 75.8571L43.1852 77.711L42.7436 80.6827L43.038 82.8092L43.4305 84.963L44.3627 86.6806L46.08 88.5345L47.282 89.8158L48.9257 90.6065L50.6429 91.1517L52.3847 91.1245L53.6849 91.0427L55.6475 90.6337L57.7818 89.5705L59.867 87.7438L61.6824 85.6719L62.7128 83.3272L67.3739 83.3817L71.0292 83.2727L85.9202 83.2454L101.964 82.9455L102.357 84.1451L103.314 85.8082L105.742 88.5617L108.195 89.625L110.305 90.1975L112.881 90.2793L115.163 89.7341L117.027 88.6981L118.327 87.444L120.584 84.6086L121.762 81.8277L121.467 80.0829L121.05 78.1745L120.535 76.0207L119.358 73.7578L118.401 71.7949L118.18 70.7316L119.897 68.8232L120.805 66.3968L121.566 63.7795L121.467 61.5439L120.535 58.8994L119.652 56.9092L118.744 55.3279L116.929 53.3922L114.917 51.8655L111.875 51.1294L108.048 51.7292L105.767 53.0923L103.019 56.0913L102.161 59.1175L63.4487 60.0445H62.6637L61.4616 58.654Z" fill="#B47746"/>
</g>
<defs>
<filter id="filter0_d_87_89" x="0" y="5.40039" width="168.22" height="110.6" filterUnits="userSpaceOnUse" color-interpolation-filters="sRGB">
<feFlood flood-opacity="0" result="BackgroundImageFix"/>
<feColorMatrix in="SourceAlpha" type="matrix" values="0 0 0 0 0 0 0 0 0 0 0 0 0 0 0 0 0 0 127 0" result="hardAlpha"/>
<feOffset dx="4" dy="4"/>
<feGaussianBlur stdDeviation="2"/>
<feComposite in2="hardAlpha" operator="out"/>
<feColorMatrix type="matrix" values="0 0 0 0 0 0 0 0 0 0 0 0 0 0 0 0 0 0 0.5 0"/>
<feBlend mode="normal" in2="BackgroundImageFix" result="effect1_dropShadow_87_89"/>
<feBlend mode="normal" in="SourceGraphic" in2="effect1_dropShadow_87_89" result="shape"/>
</filter>
</defs>
</svg>
