<svg width="109" height="142" viewBox="0 0 109 142" fill="none" xmlns="http://www.w3.org/2000/svg">
<g filter="url(#filter0_d_87_103)">
<path d="M0.329651 120.273L23.7935 105.396C22.9983 114.985 22.2031 124.52 21.408 134L47.0813 90.539L26.1008 76.7917L0.329651 120.273Z" fill="#B47746"/>
<path d="M100.462 116.862L76.9977 101.985C77.7928 111.574 78.588 121.109 79.3832 130.589L53.7098 87.1073L74.6904 73.3806L100.462 116.862Z" fill="#B47746"/>
<path d="M47.0812 94.9775C72.0375 94.9775 92.2686 73.716 92.2686 47.4887C92.2686 21.2614 72.0375 0 47.0812 0C22.1248 0 1.89374 21.2614 1.89374 47.4887C1.89374 73.716 22.1248 94.9775 47.0812 94.9775Z" fill="#4D2B17"/>
<path d="M47.0814 83.5113C66.0119 83.5113 81.3581 67.3836 81.3581 47.4889C81.3581 27.5943 66.0119 11.4666 47.0814 11.4666C28.1508 11.4666 12.8046 27.5943 12.8046 47.4889C12.8046 67.3836 28.1508 83.5113 47.0814 83.5113Z" fill="#4D2B17" stroke="#B47746" stroke-width="1.3333" stroke-miterlimit="10"/>
<path d="M63.0757 61.5034C62.9029 62.0907 62.5614 62.6075 62.0981 62.9829C58.383 66.7023 53.7293 61.3595 48.098 63.8254C44.0505 65.5926 42.5253 69.9901 39.2013 69.2092C38.6618 69.1051 38.1645 68.8331 37.7739 68.4284C35.2515 65.3871 38.4192 51.8042 45.7125 48.8863C53.9053 45.6395 64.0338 57.1264 63.0757 61.5034Z" fill="#B47746"/>
<path d="M39.4008 43.1933C42.0729 41.8315 42.7341 37.466 40.8776 33.4427C39.0211 29.4193 35.35 27.2617 32.6779 28.6234C30.0058 29.9852 29.3446 34.3507 31.2011 38.3741C33.0576 42.3974 36.7287 44.5551 39.4008 43.1933Z" fill="#B47746"/>
<path d="M54.3379 33.1754C54.5901 28.564 52.4698 24.6853 49.602 24.5121C46.7343 24.3388 44.205 27.9367 43.9527 32.548C43.7005 37.1594 45.8208 41.0382 48.6886 41.2114C51.5564 41.3846 54.0857 37.7868 54.3379 33.1754Z" fill="#B47746"/>
<path d="M65.6648 43.7558C66.3692 39.5533 64.6296 35.7188 61.7794 35.1912C58.9292 34.6635 56.0476 37.6426 55.3432 41.8451C54.6388 46.0476 56.3784 49.8821 59.2286 50.4097C62.0788 50.9373 64.9604 47.9583 65.6648 43.7558Z" fill="#B47746"/>
<path d="M35.9534 56.4751C38.1159 54.4449 37.6636 50.2047 34.9431 47.0043C32.2226 43.8039 28.2642 42.8553 26.1017 44.8855C23.9393 46.9157 24.3916 51.156 27.1121 54.3563C29.8325 57.5567 33.7909 58.5053 35.9534 56.4751Z" fill="#B47746"/>
</g>
<defs>
<filter id="filter0_d_87_103" x="0.329651" y="0" width="108.132" height="142" filterUnits="userSpaceOnUse" color-interpolation-filters="sRGB">
<feFlood flood-opacity="0" result="BackgroundImageFix"/>
<feColorMatrix in="SourceAlpha" type="matrix" values="0 0 0 0 0 0 0 0 0 0 0 0 0 0 0 0 0 0 127 0" result="hardAlpha"/>
<feOffset dx="4" dy="4"/>
<feGaussianBlur stdDeviation="2"/>
<feComposite in2="hardAlpha" operator="out"/>
<feColorMatrix type="matrix" values="0 0 0 0 0 0 0 0 0 0 0 0 0 0 0 0 0 0 0.5 0"/>
<feBlend mode="normal" in2="BackgroundImageFix" result="effect1_dropShadow_87_103"/>
<feBlend mode="normal" in="SourceGraphic" in2="effect1_dropShadow_87_103" result="shape"/>
</filter>
</defs>
</svg>
