<svg width="148" height="115" viewBox="0 0 148 115" fill="none" xmlns="http://www.w3.org/2000/svg">
<g filter="url(#filter0_d_87_150)">
<path d="M127.732 21.7717H12.268C5.49259 21.7717 0 27.0758 0 33.6188V94.3197C0 100.863 5.49259 106.167 12.268 106.167H127.732C134.507 106.167 140 100.863 140 94.3197V33.6188C140 27.0758 134.507 21.7717 127.732 21.7717Z" fill="#4D2B17"/>
<path d="M100.409 18.6236C100.41 19.0233 100.296 19.4154 100.081 19.7566C99.8652 20.0977 99.556 20.3745 99.1874 20.5562C98.8188 20.7379 98.4052 20.8174 97.9927 20.7859C97.5801 20.7545 97.1847 20.6132 96.8502 20.3779C88.8598 14.667 79.1817 11.5846 69.2409 11.5846C59.3001 11.5846 49.6219 14.667 41.6316 20.3779C41.3 20.5891 40.9157 20.7103 40.5189 20.7288C40.1222 20.7474 39.7275 20.6625 39.3764 20.4831C39.0253 20.3038 38.7306 20.0365 38.5232 19.7093C38.3157 19.3822 38.2033 19.0072 38.1975 18.6236V17.1337C38.1975 12.5896 40.0668 8.23157 43.3942 5.01837C46.7216 1.80517 51.2345 1.5505e-05 55.9401 1.5505e-05H81.0983C83.633 -0.00314283 86.1435 0.47624 88.4862 1.41075C90.8289 2.34526 92.9578 3.71657 94.7513 5.44624C96.5448 7.17592 97.9675 9.23004 98.9383 11.4911C99.909 13.7522 100.409 16.1759 100.409 18.6236Z" fill="#4D2B17"/>
<path d="M80.1778 36.5508H58.2546V89.7062H80.1778V36.5508Z" fill="#B47746"/>
<path d="M100.807 53.9243H37.6251V72.3797H100.807V53.9243Z" fill="#B47746"/>
</g>
<defs>
<filter id="filter0_d_87_150" x="0" y="0" width="148" height="114.167" filterUnits="userSpaceOnUse" color-interpolation-filters="sRGB">
<feFlood flood-opacity="0" result="BackgroundImageFix"/>
<feColorMatrix in="SourceAlpha" type="matrix" values="0 0 0 0 0 0 0 0 0 0 0 0 0 0 0 0 0 0 127 0" result="hardAlpha"/>
<feOffset dx="4" dy="4"/>
<feGaussianBlur stdDeviation="2"/>
<feComposite in2="hardAlpha" operator="out"/>
<feColorMatrix type="matrix" values="0 0 0 0 0 0 0 0 0 0 0 0 0 0 0 0 0 0 0.5 0"/>
<feBlend mode="normal" in2="BackgroundImageFix" result="effect1_dropShadow_87_150"/>
<feBlend mode="normal" in="SourceGraphic" in2="effect1_dropShadow_87_150" result="shape"/>
</filter>
</defs>
</svg>
